<svg width="35.000000" height="35.000000" viewBox="0 0 35 35" fill="none" xmlns="http://www.w3.org/2000/svg" xmlns:xlink="http://www.w3.org/1999/xlink">
	<desc>
			Created with Pixso.
	</desc>
	<defs/>
	<path id="allah 1 (Traced)" d="M14.82 2.41L12.4 4.82L8.8 4.82L5.19 4.82L5.01 5.01L4.82 5.19L4.82 8.8L4.82 12.4L2.41 14.82C0.19 17.04 0 17.26 0 17.49C0 17.73 0.19 17.94 2.41 20.17L4.82 22.59L4.82 26.19L4.82 29.8L5.01 29.98L5.19 30.17L8.8 30.17L12.4 30.17L14.82 32.58C17.04 34.79 17.26 35 17.5 35C17.73 35 17.95 34.79 20.17 32.58L22.59 30.17L26.19 30.17L29.8 30.17L29.98 29.98L30.17 29.8L30.17 26.19L30.17 22.59L32.58 20.17C34.79 17.95 35 17.73 35 17.5C35 17.26 34.79 17.04 32.58 14.82L30.17 12.4L30.17 8.8L30.17 5.19L29.98 5.01L29.8 4.82L26.19 4.82L22.59 4.82L20.17 2.41C17.94 0.19 17.73 0 17.49 0C17.26 0 17.04 0.19 14.82 2.41ZM19.8 3.77L22.06 6.03L25.51 6.03L28.96 6.03L28.96 9.48L28.96 12.93L31.24 15.21L33.52 17.5L31.24 19.78L28.96 22.06L28.96 25.51L28.96 28.96L25.51 28.96L22.06 28.96L19.78 31.24L17.5 33.52L15.21 31.24L12.93 28.96L9.48 28.96L6.03 28.96L6.03 25.51L6.03 22.06L3.75 19.78L1.47 17.5L3.75 15.21L6.03 12.93L6.03 9.48L6.03 6.03L9.48 6.03L12.93 6.03L15.19 3.77C16.44 2.52 17.47 1.5 17.49 1.5C17.51 1.5 18.55 2.52 19.8 3.77ZM15.42 6.63L13.61 8.44L11.21 8.44L8.81 8.44L8.63 8.63L8.44 8.81L8.44 11.21L8.44 13.61L6.63 15.42C4.99 17.07 4.82 17.26 4.82 17.49C4.82 17.72 4.99 17.91 6.63 19.57L8.44 21.39L8.44 23.78L8.44 26.18L8.63 26.36L8.81 26.55L11.21 26.55L13.6 26.55L15.42 28.36C17.07 29.99 17.27 30.17 17.5 30.17C17.72 30.17 17.92 29.99 19.57 28.36L21.39 26.55L23.78 26.55L26.18 26.55L26.36 26.36L26.55 26.18L26.55 23.78L26.55 21.39L28.36 19.57C29.99 17.92 30.17 17.72 30.17 17.5C30.17 17.27 29.99 17.07 28.36 15.42L26.55 13.6L26.55 11.21L26.55 8.81L26.36 8.63L26.18 8.44L23.78 8.44L21.39 8.44L19.57 6.63C17.91 4.99 17.72 4.82 17.49 4.82C17.26 4.82 17.07 4.99 15.42 6.63ZM19.19 7.99L20.86 9.65L23.1 9.65L25.34 9.65L25.34 11.89L25.34 14.13L27.02 15.81L28.69 17.5L27.02 19.18L25.34 20.86L25.34 23.1L25.34 25.34L23.1 25.34L20.86 25.34L19.18 27.02L17.5 28.69L15.81 27.02L14.13 25.34L11.89 25.34L9.65 25.34L9.65 23.1L9.65 20.86L7.97 19.18L6.3 17.5L7.97 15.81L9.65 14.13L9.65 11.89L9.65 9.65L11.89 9.65L14.13 9.65L15.79 7.99C16.71 7.08 17.47 6.33 17.49 6.33C17.51 6.33 18.28 7.08 19.19 7.99ZM17.68 14.06L17.5 14.24L17.5 17.19L17.5 20.14L17.31 20.33C17.19 20.44 17.04 20.51 16.89 20.51C16.74 20.51 16.59 20.44 16.47 20.33L16.29 20.14L16.29 17.8L16.29 15.45L16.1 15.27C15.86 15.02 15.51 15.02 15.27 15.27C15.16 15.37 15.08 15.5 15.08 15.56C15.08 15.64 14.92 15.67 14.45 15.7C13.92 15.74 13.74 15.78 13.35 15.99C12.83 16.27 12.6 16.5 12.31 17.07C12.14 17.4 12.11 17.55 12.11 18.1C12.11 18.65 12.14 18.8 12.31 19.12C12.6 19.69 12.83 19.93 13.36 20.21C13.76 20.43 13.92 20.46 14.51 20.5L15.2 20.53L15.39 20.87C15.6 21.28 16.09 21.62 16.57 21.69C16.98 21.75 17.58 21.62 17.87 21.42L18.08 21.27L18.44 21.47C19.41 22.01 20.74 21.46 21.04 20.38C21.08 20.21 21.12 19.14 21.12 17.77L21.12 15.45L20.93 15.27C20.81 15.15 20.66 15.08 20.51 15.08C20.37 15.08 20.21 15.15 20.09 15.27L19.91 15.45L19.91 17.8L19.91 20.14L19.72 20.33C19.61 20.44 19.45 20.51 19.31 20.51C19.16 20.51 19 20.44 18.89 20.33L18.7 20.14L18.7 17.19L18.7 14.24L18.52 14.06C18.4 13.94 18.25 13.87 18.1 13.87C17.95 13.87 17.8 13.94 17.68 14.06ZM21.9 14.66L21.72 14.85L21.72 18.1L21.72 21.35L21.9 21.53C22.02 21.65 22.18 21.72 22.32 21.72C22.47 21.72 22.62 21.65 22.74 21.53L22.93 21.35L22.93 18.1L22.93 14.85L22.74 14.66C22.62 14.55 22.47 14.48 22.32 14.48C22.18 14.48 22.02 14.55 21.9 14.66ZM15.08 18.1L15.08 19.31L14.66 19.31C14.13 19.31 13.8 19.16 13.55 18.84C13.19 18.36 13.19 17.77 13.55 17.34C13.82 17.02 14.12 16.9 14.65 16.89L15.08 16.89L15.08 18.1Z" fill="#1FA45B" fill-opacity="1.000000" fill-rule="evenodd"/>
</svg>
